# xmcd
#
# Track frame offsets: 
#        150
#        14865
#        28528
#        42608
#        57585
#        72329
#        84202
#        100883
#        116352
#        130176
#        144198
#        159461
#        173620
#        191052
#        207655
#        224444
#
# Disc length: 3232 seconds
#
# Revision: 0
# Processed by: cddbd v1.5.2PL0 Copyright (c) Steve Scherf et al.
# Submitted via: ExactAudioCopy v0.95b4
#
DISCID=ea0c9e10
DTITLE=Tony Christie - Platinum Hit Collection Cd2
DYEAR=2005
DGENRE=Country
TTITLE0=Sweet September
TTITLE1=I'm not chained to you
TTITLE2=Train to yesterday
TTITLE3=Summer in the Sun
TTITLE4=Mexiko City
TTITLE5=What a little love can do
TTITLE6=Summer wine
TTITLE7=I'm comming home
TTITLE8=Put a light in your window
TTITLE9=Paradise
TTITLE10=Long Gone
TTITLE11=Time
TTITLE12=Me and Marie
TTITLE13=Carribean Nights
TTITLE14=As long as I have you
TTITLE15=Te voglio mi amor (I want you my love)
EXTD=
EXTT0=
EXTT1=
EXTT2=
EXTT3=
EXTT4=
EXTT5=
EXTT6=
EXTT7=
EXTT8=
EXTT9=
EXTT10=
EXTT11=
EXTT12=
EXTT13=
EXTT14=
EXTT15=
PLAYORDER=
